HIERARCHY
ROOT Hips
{
 OFFSET 0.000000 0.000000 0.000000
 CHANNELS 6 Xposition Yposition Zposition Yrotation Xrotation Zrotation
 JOINT Chest
 {
  OFFSET 0.000000 9.588913 -0.003946
  CHANNELS 3 Yrotation Xrotation Zrotation
  JOINT Chest2
  {
   OFFSET 0.000000 9.541882 0.008053
   CHANNELS 3 Yrotation Xrotation Zrotation
   JOINT Chest3
   {
    OFFSET 0.000000 9.501360 0.000000
    CHANNELS 3 Yrotation Xrotation Zrotation
    JOINT Chest4
    {
     OFFSET 0.000000 9.491660 0.000000
     CHANNELS 3 Yrotation Xrotation Zrotation
     JOINT Neck
     {
      OFFSET 0.000000 14.331917 0.000000
      CHANNELS 3 Yrotation Xrotation Zrotation
      JOINT Head
      {
       OFFSET 0.000000 8.884799 0.017034
       CHANNELS 3 Yrotation Xrotation Zrotation
       End Site
       {
        OFFSET 0.000000 16.896195 0.008993
       }
      }
     }
     JOINT RightCollar
     {
      OFFSET -2.923010 9.499495 0.000000
      CHANNELS 3 Yrotation Xrotation Zrotation
      JOINT RightShoulder
      {
       OFFSET -13.795216 0.000000 0.000000
       CHANNELS 3 Yrotation Xrotation Zrotation
       JOINT RightElbow
       {
        OFFSET -30.272209 0.000000 0.000000
        CHANNELS 3 Yrotation Xrotation Zrotation
        JOINT RightWrist
        {
         OFFSET -24.478199 0.000000 0.000000
         CHANNELS 3 Yrotation Xrotation Zrotation
         End Site
         {
          OFFSET -18.090752 0.000000 0.000000
         }
        }
       }
      }
     }
     JOINT LeftCollar
     {
      OFFSET 2.923010 9.499495 0.000000
      CHANNELS 3 Yrotation Xrotation Zrotation
      JOINT LeftShoulder
      {
       OFFSET 13.795216 0.000000 0.000000
       CHANNELS 3 Yrotation Xrotation Zrotation
       JOINT LeftElbow
       {
        OFFSET 30.272209 0.000000 0.000000
        CHANNELS 3 Yrotation Xrotation Zrotation
        JOINT LeftWrist
        {
         OFFSET 24.478199 0.000000 0.000000
         CHANNELS 3 Yrotation Xrotation Zrotation
         End Site
         {
          OFFSET 18.090752 0.000000 0.000000
         }
        }
       }
      }
     }
    }
   }
  }
 }
 JOINT RightHip
 {
  OFFSET -7.826875 0.019532 0.001973
  CHANNELS 3 Yrotation Xrotation Zrotation
  JOINT RightKnee
  {
   OFFSET 0.000000 -40.546152 -0.001885
   CHANNELS 3 Yrotation Xrotation Zrotation
   JOINT RightAnkle
   {
    OFFSET 0.000000 -39.417092 -0.003189
    CHANNELS 3 Yrotation Xrotation Zrotation
    JOINT RightToe
    {
     OFFSET 0.000000 -7.579396 17.243563
     CHANNELS 3 Yrotation Xrotation Zrotation
     End Site
     {
      OFFSET 0.000000 -1.500329 6.694466
     }
    }
   }
  }
 }
 JOINT LeftHip
 {
  OFFSET 7.826875 0.019532 0.001973
  CHANNELS 3 Yrotation Xrotation Zrotation
  JOINT LeftKnee
  {
   OFFSET 0.000000 -40.546152 -0.001885
   CHANNELS 3 Yrotation Xrotation Zrotation
   JOINT LeftAnkle
   {
    OFFSET 0.000000 -39.417092 -0.003189
    CHANNELS 3 Yrotation Xrotation Zrotation
    JOINT LeftToe
    {
     OFFSET 0.000000 -7.579396 17.243563
     CHANNELS 3 Yrotation Xrotation Zrotation
     End Site
     {
      OFFSET 0.000000 -1.500329 6.694466
     }
    }
   }
  }
 }
}
MOTION
Frames: 15
Frame Time: 0.008333
0.000000 87.345680 0.000000 0.000000 -5.767889 0.000000 0.000000 11.653876 0.000000 0.000000 -5.885988 0.000000 0.000000 -0.000000 0.000000 0.000000 -0.000000 0.000000 0.000000 12.528808 0.000000 0.000000 0.711711 0.000000 0.000000 -0.000000 0.000000 0.000000 -0.000000 0.000000 2.309063 -0.000000 0.000000 -2.309063 -0.000000 -0.000000 0.000000 -0.000000 0.000000 0.000000 0.000000 0.000000 -2.309063 0.000000 0.000000 2.309063 -0.000000 0.000000 0.000000 8.520374 0.000000 0.000000 1.905768 0.000000 -0.000000 -4.658254 0.000000 0.000000 -0.000000 0.000000 0.000000 8.520374 0.000000 0.000000 1.905768 0.000000 -0.000000 -4.658254 0.000000 0.000000 -0.000000 0.000000
35.363988 16.621227 62.319766 -138.306108 -61.022776 -0.159923 0.781235 16.526376 1.746130 0.379652 9.445943 0.960006 0.501446 11.806309 1.214135 0.379652 9.445943 0.960006 -26.732581 13.581523 -6.009447 -32.313448 -9.643505 -0.677411 -13.705526 1.076047 -18.984821 -7.609341 16.314102 107.387423 1.414084 -39.407675 -9.680212 27.267493 -7.067401 -54.053440 0.065073 5.153763 7.898622 11.349481 22.166855 -105.814603 6.822848 -31.177255 2.537573 -53.545377 0.987657 55.336725 7.739613 -58.837386 -9.480091 4.940578 58.515938 0.629236 0.210185 27.417790 13.046317 0.000981 0.001897 -0.006042 15.970940 -58.783383 -17.557646 10.409263 57.896904 17.201109 5.452559 43.455620 -3.275546 -0.004895 -0.004376 0.019893
35.364232 16.621367 62.319465 -138.304924 -61.024702 -0.164127 0.782339 16.526736 1.746937 0.380120 9.446138 0.960644 0.502050 11.806551 1.214949 0.380120 9.446138 0.960644 -26.720930 13.587112 -6.017428 -32.292773 -9.638882 -0.690383 -13.706516 1.083311 -18.981898 -7.612585 16.312940 107.388174 1.421005 -39.402917 -9.683829 27.264718 -7.066005 -54.052937 0.065895 5.153221 7.897273 11.355161 22.166418 -105.808680 6.823772 -31.171248 2.539103 -53.546675 0.989458 55.337598 7.735653 -58.835730 -9.477535 4.944345 58.515119 0.635156 0.210485 27.420587 13.048378 0.000948 -0.000156 -0.006311 15.965235 -58.782315 -17.551553 10.413219 57.896708 17.204811 5.455312 43.456125 -3.275291 -0.004071 -0.004554 0.018628
35.364259 16.621367 62.319467 -138.302625 -61.026066 -0.166873 0.782576 16.527249 1.747405 0.380231 9.446642 0.960866 0.502197 11.807181 1.215231 0.380231 9.446642 0.960866 -26.710077 13.593048 -6.024763 -32.273451 -9.633663 -0.702384 -13.707024 1.088123 -18.980756 -7.614863 16.312263 107.387869 1.427456 -39.399318 -9.685275 27.261181 -7.064825 -54.053841 0.065984 5.148597 7.896471 11.358796 22.166927 -105.804449 6.826475 -31.170854 2.539978 -53.546338 0.993955 55.334861 7.732369 -58.835183 -9.478696 4.950783 58.514898 0.644944 0.209542 27.423720 13.045212 0.001092 -0.001845 -0.004777 15.961469 -58.781361 -17.548824 10.411527 57.896706 17.201547 5.460692 43.457242 -3.273362 -0.003635 -0.004479 0.016558
35.364034 16.621049 62.319905 -138.298967 -61.025781 -0.167665 0.782988 16.528817 1.747906 0.380278 9.447523 0.960611 0.502252 11.808282 1.214914 0.380278 9.447523 0.960611 -26.700430 13.598710 -6.029723 -32.256647 -9.628443 -0.711109 -13.709460 1.087882 -18.979453 -7.614757 16.311858 107.387183 1.434324 -39.401747 -9.685666 27.258295 -7.061932 -54.053271 0.062597 5.140387 7.896130 11.362571 22.167160 -105.802635 6.829838 -31.170741 2.542500 -53.548007 0.994338 55.333614 7.732213 -58.836137 -9.484398 4.955554 58.515253 0.652109 0.207529 27.426039 13.040916 0.001491 -0.002350 -0.003628 15.961083 -58.781591 -17.551259 10.407683 57.897884 17.194835 5.465759 43.456571 -3.271861 -0.002664 -0.003336 0.014358
35.363856 16.620647 62.320309 -138.294994 -61.025565 -0.168915 0.783797 16.530230 1.747962 0.380695 9.448191 0.960374 0.502772 11.809116 1.214629 0.380695 9.448191 0.960374 -26.691448 13.604597 -6.033371 -32.241185 -9.622755 -0.718050 -13.713714 1.087605 -18.977500 -7.612591 16.312881 107.387974 1.440247 -39.408383 -9.683733 27.259045 -7.055800 -54.053283 0.056828 5.135126 7.897747 11.366157 22.167094 -105.802222 6.834097 -31.168475 2.544927 -53.552626 0.989722 55.334452 7.730893 -58.836933 -9.488138 4.955180 58.516360 0.652878 0.207221 27.426568 13.038636 0.002038 -0.001705 -0.003652 15.959001 -58.781837 -17.553094 10.404282 57.899496 17.187571 5.472096 43.453425 -3.268436 -0.002143 -0.000778 0.011589
35.363682 16.620428 62.320506 -138.287610 -61.027288 -0.174076 0.783199 16.531234 1.747504 0.380287 9.448628 0.960122 0.502254 11.809664 1.214303 0.380287 9.448628 0.960122 -26.682275 13.610269 -6.037735 -32.225272 -9.617410 -0.725917 -13.715816 1.090328 -18.976586 -7.614673 16.315332 107.387353 1.442528 -39.410403 -9.678516 27.261901 -7.049179 -54.052998 0.053558 5.134720 7.899938 11.367017 22.168247 -105.802453 6.836138 -31.170166 2.544489 -53.559213 0.988908 55.332264 7.727313 -58.835977 -9.490885 4.952859 58.518793 0.651365 0.210372 27.424807 13.038094 0.001673 -0.000619 -0.002934 15.953132 -58.780978 -17.552834 10.402261 57.902367 17.182037 5.476494 43.447890 -3.266723 -0.001580 0.002603 0.009270
35.363377 16.620233 62.320771 -138.277866 -61.029881 -0.180932 0.780186 16.532389 1.746606 0.378446 9.449210 0.959353 0.499926 11.810397 1.213292 0.378446 9.449210 0.959353 -26.672363 13.615049 -6.042768 -32.208173 -9.613322 -0.734733 -13.711393 1.092299 -18.977221 -7.623504 16.319655 107.384573 1.444520 -39.404620 -9.675782 27.261301 -7.047211 -54.050008 0.056044 5.135094 7.902299 11.367425 22.170172 -105.803813 6.834226 -31.172800 2.543742 -53.564580 0.991789 55.328422 7.726148 -58.834540 -9.496411 4.952516 58.522987 0.650289 0.215607 27.421177 13.040297 0.000440 0.000339 -0.000940 15.947943 -58.780146 -17.555046 10.402539 57.905629 17.181377 5.476156 43.443799 -3.269370 -0.000040 0.004487 0.007637
35.363223 16.619779 62.321163 -138.274151 -61.031375 -0.183650 0.776966 16.533780 1.745135 0.376857 9.450115 0.958551 0.497915 11.811533 1.212245 0.376857 9.450115 0.958551 -26.661970 13.617987 -6.046923 -32.190823 -9.611524 -0.742435 -13.702299 1.090709 -18.979317 -7.630010 16.324734 107.384326 1.449626 -39.398161 -9.676557 27.258113 -7.050023 -54.047017 0.065494 5.131113 7.904891 11.361743 22.173345 -105.804891 6.829349 -31.173089 2.543106 -53.562970 0.991486 55.327516 7.726061 -58.835144 -9.497551 4.953190 58.528174 0.646616 0.219525 27.417238 13.043090 -0.000797 0.001158 0.001951 15.946200 -58.781139 -17.558595 10.404528 57.907960 17.183287 5.477005 43.442485 -3.269261 0.000339 0.004620 0.005308
35.363282 16.619067 62.321783 -138.277727 -61.031710 -0.181473 0.775025 16.535725 1.743990 0.376242 9.451415 0.958435 0.497145 11.813160 1.212086 0.376242 9.451415 0.958435 -26.651931 13.618094 -6.050122 -32.174644 -9.613108 -0.748682 -13.694304 1.087422 -18.982169 -7.630893 16.327598 107.385735 1.457373 -39.393741 -9.676531 27.254011 -7.053361 -54.046354 0.079943 5.122317 7.904913 11.345475 22.177064 -105.805769 6.823177 -31.174716 2.542843 -53.556053 0.987779 55.328029 7.725793 -58.837513 -9.492520 4.953893 58.533465 0.640440 0.219232 27.413296 13.042412 -0.002261 0.002311 0.005723 15.947904 -58.783167 -17.561600 10.407289 57.909152 17.185620 5.478517 43.442168 -3.265443 -0.000534 0.004272 0.001982
35.363254 16.618338 62.322886 -138.281164 -61.032477 -0.178940 0.773914 16.538758 1.744168 0.375979 9.453278 0.959064 0.496837 11.815489 1.212872 0.375979 9.453278 0.959064 -26.642221 13.615834 -6.052771 -32.159430 -9.617530 -0.754018 -13.689939 1.085219 -18.985072 -7.635490 16.329082 107.383958 1.467289 -39.385817 -9.673551 27.249363 -7.054958 -54.047809 0.088498 5.111527 7.900968 11.332510 22.178567 -105.807592 6.819655 -31.178418 2.544691 -53.551889 0.983466 55.326373 7.727699 -58.839599 -9.489831 4.955706 58.539312 0.636606 0.217177 27.409200 13.039715 -0.003662 0.003160 0.009328 15.947148 -58.783645 -17.561489 10.408114 57.908621 17.184991 5.477417 43.442621 -3.262860 -0.000530 0.003917 -0.001554
35.363169 16.617670 62.324515 -138.284298 -61.034257 -0.176439 0.774283 16.542904 1.744802 0.376442 9.455695 0.959902 0.497448 11.818509 1.213940 0.376442 9.455695 0.959902 -26.632029 13.612658 -6.053451 -32.144134 -9.623024 -0.756925 -13.688520 1.084218 -18.985749 -7.646857 16.331458 107.379286 1.479616 -39.373416 -9.669195 27.246343 -7.055456 -54.049239 0.087199 5.100226 7.897159 11.328830 22.177657 -105.810608 6.820303 -31.183443 2.546841 -53.553932 0.980734 55.323062 7.731135 -58.840629 -9.488887 4.956500 58.545281 0.632522 0.217749 27.405356 13.038817 -0.004685 0.003352 0.012213 15.941500 -58.783325 -17.556726 10.408222 57.907932 17.181648 5.476280 43.443882 -3.260075 -0.000525 0.003225 -0.005348
35.363385 16.616818 62.326596 -138.289807 -61.035461 -0.173643 0.776184 16.546727 1.745666 0.377528 9.457866 0.960362 0.498828 11.821219 1.214550 0.377528 9.457866 0.960362 -26.620804 13.609752 -6.051667 -32.127889 -9.628175 -0.756980 -13.689092 1.084216 -18.982797 -7.657386 16.334199 107.374965 1.494348 -39.361092 -9.667670 27.243617 -7.054861 -54.048388 0.082913 5.090253 7.896676 11.328761 22.176863 -105.815455 6.821373 -31.190504 2.547329 -53.558337 0.982457 55.320265 7.731256 -58.841716 -9.482702 4.955839 58.549466 0.626295 0.220334 27.401816 13.039511 -0.005192 0.003859 0.014185 15.934207 -58.785251 -17.548792 10.411395 57.908734 17.182113 5.472039 43.445194 -3.258511 -0.000243 0.002253 -0.009397
35.363938 16.615587 62.329220 -138.294784 -61.034838 -0.172851 0.778408 16.549578 1.747176 0.378610 9.459341 0.960614 0.500197 11.823059 1.214897 0.378610 9.459341 0.960614 -26.609219 13.607039 -6.048534 -32.111435 -9.633049 -0.755429 -13.692438 1.083330 -18.979600 -7.663481 16.337211 107.372314 1.508346 -39.349600 -9.668501 27.239579 -7.052305 -54.047596 0.078111 5.081721 7.897911 11.331212 22.178312 -105.820816 6.819441 -31.198215 2.546735 -53.560715 0.988678 55.319298 7.727872 -58.844641 -9.472949 4.955651 58.552939 0.621330 0.221221 27.398221 13.039985 -0.004816 0.004780 0.014458 15.927122 -58.789559 -17.540092 10.412729 57.910518 17.184000 5.463114 43.446385 -3.261382 0.001401 0.001505 -0.013014
35.364615 16.613979 62.332481 -138.298337 -61.032410 -0.173302 0.780334 16.552346 1.749256 0.379292 9.460505 0.961103 0.501069 11.824511 1.215531 0.379292 9.460505 0.961103 -26.597266 13.603397 -6.045294 -32.094574 -9.639117 -0.753768 -13.696369 1.079007 -18.980604 -7.668135 16.339698 107.371378 1.515476 -39.338470 -9.666966 27.236388 -7.048519 -54.049192 0.076223 5.073529 7.898206 11.333417 22.180499 -105.826177 6.816002 -31.203645 2.546543 -53.564279 0.997306 55.318448 7.726563 -58.849693 -9.466389 4.955061 58.556260 0.619249 0.220230 27.396151 13.039269 -0.003875 0.004983 0.013453 15.920696 -58.795219 -17.531904 10.405574 57.914031 17.179759 5.454715 43.446814 -3.267805 0.003558 0.001254 -0.015577
